<?xml version="1.0" encoding="UTF-8" standalone="no"?>
<!DOCTYPE svg PUBLIC "-//W3C//DTD SVG 1.1//EN"
 "http://www.w3.org/Graphics/SVG/1.1/DTD/svg11.dtd">
<!-- Generated by graphviz version 2.40.1 (20161225.0304)
      -->
<!-- Title: %3 Pages: 1 -->
<svg width="654pt" height="404pt"
 viewBox="0.00 0.00 653.50 404.00" xmlns="http://www.w3.org/2000/svg" xmlns:xlink="http://www.w3.org/1999/xlink">
<g id="graph0" class="graph" transform="scale(1 1) rotate(0) translate(4 400)">
<title>%3</title>
<polygon fill="#ffffff" stroke="transparent" points="-4,4 -4,-400 649.5,-400 649.5,4 -4,4"/>
<!-- [root] aws_subnet.vpc_subnets -->
<g id="node1" class="node">
<title>[root] aws_subnet.vpc_subnets</title>
<polygon fill="none" stroke="#000000" points="359.5,-252 209.5,-252 209.5,-216 359.5,-216 359.5,-252"/>
<text text-anchor="middle" x="284.5" y="-230.3" font-family="Times,serif" font-size="14.00" fill="#000000">aws_subnet.vpc_subnets</text>
</g>
<!-- [root] aws_vpc.main_vpc -->
<g id="node2" class="node">
<title>[root] aws_vpc.main_vpc</title>
<polygon fill="none" stroke="#000000" points="242.5,-180 120.5,-180 120.5,-144 242.5,-144 242.5,-180"/>
<text text-anchor="middle" x="181.5" y="-158.3" font-family="Times,serif" font-size="14.00" fill="#000000">aws_vpc.main_vpc</text>
</g>
<!-- [root] aws_subnet.vpc_subnets&#45;&gt;[root] aws_vpc.main_vpc -->
<g id="edge1" class="edge">
<title>[root] aws_subnet.vpc_subnets&#45;&gt;[root] aws_vpc.main_vpc</title>
<path fill="none" stroke="#000000" d="M258.5088,-215.8314C245.5784,-206.7927 229.7778,-195.7476 215.8617,-186.0198"/>
<polygon fill="#000000" stroke="#000000" points="217.6843,-183.0235 207.4829,-180.1628 213.6737,-188.7608 217.6843,-183.0235"/>
</g>
<!-- [root] var.aaz -->
<g id="node5" class="node">
<title>[root] var.aaz</title>
<polygon fill="none" stroke="#000000" points="310.5,-180 260.5,-180 260.5,-144 316.5,-144 316.5,-174 310.5,-180"/>
<polyline fill="none" stroke="#000000" points="310.5,-180 310.5,-174 "/>
<polyline fill="none" stroke="#000000" points="316.5,-174 310.5,-174 "/>
<text text-anchor="middle" x="288.5" y="-158.3" font-family="Times,serif" font-size="14.00" fill="#000000">var.aaz</text>
</g>
<!-- [root] aws_subnet.vpc_subnets&#45;&gt;[root] var.aaz -->
<g id="edge2" class="edge">
<title>[root] aws_subnet.vpc_subnets&#45;&gt;[root] var.aaz</title>
<path fill="none" stroke="#000000" d="M285.5094,-215.8314C285.9372,-208.131 286.4459,-198.9743 286.9213,-190.4166"/>
<polygon fill="#000000" stroke="#000000" points="290.4169,-190.592 287.477,-180.4133 283.4276,-190.2037 290.4169,-190.592"/>
</g>
<!-- [root] var.vpc_subnet_cidr -->
<g id="node10" class="node">
<title>[root] var.vpc_subnet_cidr</title>
<polygon fill="none" stroke="#000000" points="456,-180 335,-180 335,-144 462,-144 462,-174 456,-180"/>
<polyline fill="none" stroke="#000000" points="456,-180 456,-174 "/>
<polyline fill="none" stroke="#000000" points="462,-174 456,-174 "/>
<text text-anchor="middle" x="398.5" y="-158.3" font-family="Times,serif" font-size="14.00" fill="#000000">var.vpc_subnet_cidr</text>
</g>
<!-- [root] aws_subnet.vpc_subnets&#45;&gt;[root] var.vpc_subnet_cidr -->
<g id="edge3" class="edge">
<title>[root] aws_subnet.vpc_subnets&#45;&gt;[root] var.vpc_subnet_cidr</title>
<path fill="none" stroke="#000000" d="M313.267,-215.8314C327.7133,-206.7074 345.3965,-195.539 360.904,-185.7449"/>
<polygon fill="#000000" stroke="#000000" points="363.1563,-188.462 369.7422,-180.1628 359.4183,-182.5436 363.1563,-188.462"/>
</g>
<!-- [root] provider.aws -->
<g id="node4" class="node">
<title>[root] provider.aws</title>
<polygon fill="none" stroke="#000000" points="92.5,-108 12.5666,-90 92.5,-72 172.4334,-90 92.5,-108"/>
<text text-anchor="middle" x="92.5" y="-86.3" font-family="Times,serif" font-size="14.00" fill="#000000">provider.aws</text>
</g>
<!-- [root] aws_vpc.main_vpc&#45;&gt;[root] provider.aws -->
<g id="edge4" class="edge">
<title>[root] aws_vpc.main_vpc&#45;&gt;[root] provider.aws</title>
<path fill="none" stroke="#000000" d="M159.0415,-143.8314C146.6224,-133.7844 131.1389,-121.2585 118.2336,-110.8182"/>
<polygon fill="#000000" stroke="#000000" points="120.1591,-107.874 110.1833,-104.3056 115.7565,-113.3162 120.1591,-107.874"/>
</g>
<!-- [root] var.vpc_cidr -->
<g id="node9" class="node">
<title>[root] var.vpc_cidr</title>
<polygon fill="none" stroke="#000000" points="269,-108 190,-108 190,-72 275,-72 275,-102 269,-108"/>
<polyline fill="none" stroke="#000000" points="269,-108 269,-102 "/>
<polyline fill="none" stroke="#000000" points="275,-102 269,-102 "/>
<text text-anchor="middle" x="232.5" y="-86.3" font-family="Times,serif" font-size="14.00" fill="#000000">var.vpc_cidr</text>
</g>
<!-- [root] aws_vpc.main_vpc&#45;&gt;[root] var.vpc_cidr -->
<g id="edge5" class="edge">
<title>[root] aws_vpc.main_vpc&#45;&gt;[root] var.vpc_cidr</title>
<path fill="none" stroke="#000000" d="M194.3695,-143.8314C200.1835,-135.6232 207.1696,-125.7606 213.5646,-116.7323"/>
<polygon fill="#000000" stroke="#000000" points="216.5331,-118.5966 219.4573,-108.4133 210.821,-114.5505 216.5331,-118.5966"/>
</g>
<!-- [root] data.aws_availability_zones.aaz -->
<g id="node3" class="node">
<title>[root] data.aws_availability_zones.aaz</title>
<polygon fill="none" stroke="#000000" points="191,-252 0,-252 0,-216 191,-216 191,-252"/>
<text text-anchor="middle" x="95.5" y="-230.3" font-family="Times,serif" font-size="14.00" fill="#000000">data.aws_availability_zones.aaz</text>
</g>
<!-- [root] data.aws_availability_zones.aaz&#45;&gt;[root] provider.aws -->
<g id="edge6" class="edge">
<title>[root] data.aws_availability_zones.aaz&#45;&gt;[root] provider.aws</title>
<path fill="none" stroke="#000000" d="M95.12,-215.7623C94.6084,-191.201 93.6927,-147.2474 93.0907,-118.3541"/>
<polygon fill="#000000" stroke="#000000" points="96.5845,-118.0145 92.8769,-108.0896 89.586,-118.1604 96.5845,-118.0145"/>
</g>
<!-- [root] var.region -->
<g id="node8" class="node">
<title>[root] var.region</title>
<polygon fill="none" stroke="#000000" points="122.5,-36 56.5,-36 56.5,0 128.5,0 128.5,-30 122.5,-36"/>
<polyline fill="none" stroke="#000000" points="122.5,-36 122.5,-30 "/>
<polyline fill="none" stroke="#000000" points="128.5,-30 122.5,-30 "/>
<text text-anchor="middle" x="92.5" y="-14.3" font-family="Times,serif" font-size="14.00" fill="#000000">var.region</text>
</g>
<!-- [root] provider.aws&#45;&gt;[root] var.region -->
<g id="edge13" class="edge">
<title>[root] provider.aws&#45;&gt;[root] var.region</title>
<path fill="none" stroke="#000000" d="M92.5,-71.8314C92.5,-64.131 92.5,-54.9743 92.5,-46.4166"/>
<polygon fill="#000000" stroke="#000000" points="96.0001,-46.4132 92.5,-36.4133 89.0001,-46.4133 96.0001,-46.4132"/>
</g>
<!-- [root] var.ami_instance -->
<g id="node6" class="node">
<title>[root] var.ami_instance</title>
<polygon fill="none" stroke="#000000" points="481.5,-252 377.5,-252 377.5,-216 487.5,-216 487.5,-246 481.5,-252"/>
<polyline fill="none" stroke="#000000" points="481.5,-252 481.5,-246 "/>
<polyline fill="none" stroke="#000000" points="487.5,-246 481.5,-246 "/>
<text text-anchor="middle" x="432.5" y="-230.3" font-family="Times,serif" font-size="14.00" fill="#000000">var.ami_instance</text>
</g>
<!-- [root] var.ami_instance_type -->
<g id="node7" class="node">
<title>[root] var.ami_instance_type</title>
<polygon fill="none" stroke="#000000" points="639.5,-252 505.5,-252 505.5,-216 645.5,-216 645.5,-246 639.5,-252"/>
<polyline fill="none" stroke="#000000" points="639.5,-252 639.5,-246 "/>
<polyline fill="none" stroke="#000000" points="645.5,-246 639.5,-246 "/>
<text text-anchor="middle" x="575.5" y="-230.3" font-family="Times,serif" font-size="14.00" fill="#000000">var.ami_instance_type</text>
</g>
<!-- [root] meta.count&#45;boundary (EachMode fixup) -->
<g id="node11" class="node">
<title>[root] meta.count&#45;boundary (EachMode fixup)</title>
<ellipse fill="none" stroke="#000000" cx="413.5" cy="-306" rx="176.5689" ry="18"/>
<text text-anchor="middle" x="413.5" y="-302.3" font-family="Times,serif" font-size="14.00" fill="#000000">[root] meta.count&#45;boundary (EachMode fixup)</text>
</g>
<!-- [root] meta.count&#45;boundary (EachMode fixup)&#45;&gt;[root] aws_subnet.vpc_subnets -->
<g id="edge7" class="edge">
<title>[root] meta.count&#45;boundary (EachMode fixup)&#45;&gt;[root] aws_subnet.vpc_subnets</title>
<path fill="none" stroke="#000000" d="M381.6124,-288.2022C364.839,-278.8404 344.0725,-267.2498 326.0535,-257.1927"/>
<polygon fill="#000000" stroke="#000000" points="327.3546,-253.9106 316.9168,-252.0931 323.943,-260.023 327.3546,-253.9106"/>
</g>
<!-- [root] meta.count&#45;boundary (EachMode fixup)&#45;&gt;[root] data.aws_availability_zones.aaz -->
<g id="edge8" class="edge">
<title>[root] meta.count&#45;boundary (EachMode fixup)&#45;&gt;[root] data.aws_availability_zones.aaz</title>
<path fill="none" stroke="#000000" d="M340.943,-289.572C294.7251,-279.1076 234.5069,-265.4733 185.2848,-254.3286"/>
<polygon fill="#000000" stroke="#000000" points="185.8023,-250.8573 175.2763,-252.0626 184.2565,-257.6845 185.8023,-250.8573"/>
</g>
<!-- [root] meta.count&#45;boundary (EachMode fixup)&#45;&gt;[root] var.ami_instance -->
<g id="edge9" class="edge">
<title>[root] meta.count&#45;boundary (EachMode fixup)&#45;&gt;[root] var.ami_instance</title>
<path fill="none" stroke="#000000" d="M418.2945,-287.8314C420.3489,-280.0463 422.796,-270.7729 425.0756,-262.1347"/>
<polygon fill="#000000" stroke="#000000" points="428.4735,-262.9753 427.6409,-252.4133 421.7052,-261.1892 428.4735,-262.9753"/>
</g>
<!-- [root] meta.count&#45;boundary (EachMode fixup)&#45;&gt;[root] var.ami_instance_type -->
<g id="edge10" class="edge">
<title>[root] meta.count&#45;boundary (EachMode fixup)&#45;&gt;[root] var.ami_instance_type</title>
<path fill="none" stroke="#000000" d="M453.1297,-288.3868C474.9467,-278.6903 502.2374,-266.5612 525.507,-256.2191"/>
<polygon fill="#000000" stroke="#000000" points="527.1547,-259.317 534.8713,-252.0572 524.3117,-252.9203 527.1547,-259.317"/>
</g>
<!-- [root] provider.aws (close) -->
<g id="node12" class="node">
<title>[root] provider.aws (close)</title>
<ellipse fill="none" stroke="#000000" cx="113.5" cy="-306" rx="105.0817" ry="18"/>
<text text-anchor="middle" x="113.5" y="-302.3" font-family="Times,serif" font-size="14.00" fill="#000000">[root] provider.aws (close)</text>
</g>
<!-- [root] provider.aws (close)&#45;&gt;[root] aws_subnet.vpc_subnets -->
<g id="edge11" class="edge">
<title>[root] provider.aws (close)&#45;&gt;[root] aws_subnet.vpc_subnets</title>
<path fill="none" stroke="#000000" d="M153.1606,-289.3008C176.6068,-279.4287 206.5824,-266.8074 231.9753,-256.1156"/>
<polygon fill="#000000" stroke="#000000" points="233.6017,-259.2285 241.4599,-252.1222 230.8853,-252.7771 233.6017,-259.2285"/>
</g>
<!-- [root] provider.aws (close)&#45;&gt;[root] data.aws_availability_zones.aaz -->
<g id="edge12" class="edge">
<title>[root] provider.aws (close)&#45;&gt;[root] data.aws_availability_zones.aaz</title>
<path fill="none" stroke="#000000" d="M108.9578,-287.8314C107.0116,-280.0463 104.6932,-270.7729 102.5337,-262.1347"/>
<polygon fill="#000000" stroke="#000000" points="105.9242,-261.2658 100.1033,-252.4133 99.1332,-262.9636 105.9242,-261.2658"/>
</g>
<!-- [root] root -->
<g id="node13" class="node">
<title>[root] root</title>
<ellipse fill="none" stroke="#000000" cx="263.5" cy="-378" rx="47.3916" ry="18"/>
<text text-anchor="middle" x="263.5" y="-374.3" font-family="Times,serif" font-size="14.00" fill="#000000">[root] root</text>
</g>
<!-- [root] root&#45;&gt;[root] meta.count&#45;boundary (EachMode fixup) -->
<g id="edge14" class="edge">
<title>[root] root&#45;&gt;[root] meta.count&#45;boundary (EachMode fixup)</title>
<path fill="none" stroke="#000000" d="M293.1352,-363.7751C314.4091,-353.5636 343.4834,-339.608 367.7274,-327.9708"/>
<polygon fill="#000000" stroke="#000000" points="369.2557,-331.1196 376.7564,-323.6369 366.2266,-324.809 369.2557,-331.1196"/>
</g>
<!-- [root] root&#45;&gt;[root] provider.aws (close) -->
<g id="edge15" class="edge">
<title>[root] root&#45;&gt;[root] provider.aws (close)</title>
<path fill="none" stroke="#000000" d="M233.8648,-363.7751C212.2123,-353.3819 182.4794,-339.1101 157.9831,-327.3519"/>
<polygon fill="#000000" stroke="#000000" points="159.4085,-324.1538 148.8787,-322.9818 156.3794,-330.4645 159.4085,-324.1538"/>
</g>
</g>
</svg>

